# Exported from Wings 3D 2.1.5
mtllib fish.mtl
o sphere7
#114 vertices, 128 faces
v 0.27017450 1.3607228e-2 -0.92375520
v 0.24960869 0.14597715 -0.92135269
v 0.19104222 0.25819495 -0.91931594
v 0.10339131 0.33317648 -0.91795503
v 3.6589867e-18 0.35950649 -0.91747714
v -0.10339131 0.33317648 -0.91795503
v -0.19104222 0.25819495 -0.91931594
v -0.24960869 0.14597715 -0.92135269
v -0.27017450 1.3607228e-2 -0.92375520
v -0.24960869 -0.11876269 -0.92615771
v -0.19104222 -0.23098049 -0.92819446
v -0.10339131 -0.30596202 -0.92955537
v -6.2514681e-17 -0.33229204 -0.93003326
v 0.10339131 -0.30596202 -0.92955537
v 0.19104222 -0.23098049 -0.92819446
v 0.24960869 -0.11876269 -0.92615771
v 0.49921739 1.0392392e-2 -0.70701162
v 0.46121673 0.25498011 -0.70257236
v 0.35300000 0.46233156 -0.69880894
v 0.19104222 0.60087938 -0.69629430
v 1.7683818e-17 0.64953090 -0.69541128
v -0.19104222 0.60087938 -0.69629430
v -0.35300000 0.46233156 -0.69880894
v -0.46121673 0.25498011 -0.70257236
v -0.49921739 1.0392392e-2 -0.70701162
v -0.46121673 -0.23419532 -0.71145088
v -0.35300000 -0.44154678 -0.71521430
v -0.19104222 -0.58009459 -0.71772894
v -1.0458918e-16 -0.62874611 -0.71861196
v 0.19104222 -0.58009459 -0.71772894
v 0.35300000 -0.44154678 -0.71521430
v 0.46121673 -0.23419532 -0.71145088
v 0.65225895 5.5810496e-3 -0.38263193
v 0.60260869 0.32515030 -0.37683176
v 0.46121673 0.59606803 -0.37191461
v 0.24960869 0.77708947 -0.36862908
v 2.7054911e-17 0.84065575 -0.36747536
v -0.24960869 0.77708947 -0.36862908
v -0.46121673 0.59606803 -0.37191461
v -0.60260869 0.32515030 -0.37683176
v -0.65225895 5.5810496e-3 -0.38263193
v -0.60260869 -0.31398820 -0.38843210
v -0.46121673 -0.58490593 -0.39334925
v -0.24960869 -0.76592737 -0.39663478
v -1.3270246e-16 -0.82949365 -0.39778851
v 0.24960869 -0.76592737 -0.39663478
v 0.46121673 -0.58490593 -0.39334925
v 0.60260869 -0.31398820 -0.38843210
v 0.70600000 -9.4315789e-5 -9.6965791e-17
v 0.65225895 0.34580495 6.2780591e-3
v 0.49921739 0.63904419 1.1600341e-2
v 0.27017450 0.83498038 1.5156575e-2
v 3.0345602e-17 0.90378403 1.6405359e-2
v -0.27017450 0.83498038 1.5156575e-2
v -0.49921739 0.63904419 1.1600341e-2
v -0.65225895 0.34580495 6.2780591e-3
v -0.70600000 -9.4315789e-5 -9.4956714e-17
v -0.65225895 -0.34599358 -6.2780591e-3
v -0.49921739 -0.63923282 -1.1600341e-2
v -0.27017450 -0.83516902 -1.5156575e-2
v -1.4257453e-16 -0.90397266 -1.6405359e-2
v 0.27017450 -0.83516902 -1.5156575e-2
v 0.49921739 -0.63923282 -1.1600341e-2
v 0.65225895 -0.34599358 -6.2780591e-3
v 0.65225895 -5.7696812e-3 1.44752082
v 0.60260869 0.31379957 1.45332099
v 0.46121673 0.58471730 1.45823814
v 0.24960869 0.76573874 1.46152367
v 2.7054911e-17 0.82930502 1.46267740
v -0.24960869 0.76573874 1.46152367
v -0.46121673 0.58471730 1.45823814
v -0.60260869 0.31379957 1.45332099
v -0.65225895 -5.7696812e-3 1.44752082
v -0.60260869 -0.32533893 1.44172065
v -0.46121673 -0.59625666 1.43680350
v -0.24960869 -0.77727811 1.43351797
v -1.3270246e-16 -0.84084438 1.43236425
v 0.24960869 -0.77727811 1.43351797
v 0.46121673 -0.59625666 1.43680350
v 0.60260869 -0.32533893 1.44172065
v 0.49921739 -1.0581024e-2 2.22878940
v 0.46121673 0.23400669 2.23322866
v 0.35300000 0.44135815 2.23699208
v 0.19104222 0.57990596 2.23950672
v 1.7683818e-17 0.62855748 2.24038974
v -0.19104222 0.57990596 2.23950672
v -0.35300000 0.44135815 2.23699208
v -0.46121673 0.23400669 2.23322866
v -0.49921739 -1.0581024e-2 2.22878940
v -0.46121673 -0.25516874 2.22435014
v -0.35300000 -0.46252019 2.22058672
v -0.19104222 -0.60106801 2.21807208
v -1.0458918e-16 -0.64971953 2.21718906
v 0.19104222 -0.60106801 2.21807208
v 0.35300000 -0.46252019 2.22058672
v 0.46121673 -0.25516874 2.22435014
v 0.33702470 -4.4683796e-2 2.44618458
v 0.24960869 0.25357139 2.44793549
v 0.19104222 0.36578919 2.44997224
v 0.10339131 0.44077073 2.45133315
v 3.6589867e-18 0.46710074 2.45181104
v -0.10339131 0.44077073 2.45133315
v -0.19104222 0.36578919 2.44997224
v -0.24960869 0.25357139 2.44793549
v -0.31970350 -2.4051527e-2 2.45899017
v -0.24960869 -0.29241289 2.44313047
v -0.19104222 -0.40463069 2.44109372
v -0.10339131 -0.47961222 2.43973281
v -6.2514681e-17 -0.50594224 2.43925492
v 0.10339131 -0.47961222 2.43973281
v 0.19104222 -0.40463069 2.44109372
v 0.24960869 -0.29241289 2.44313047
v -1.2884430e-17 1.4736129e-2 -0.99986542
v -1.2884430e-17 -1.4924760e-2 2.66974660
vt 0.0000000e+0 0.17796252
vt 0.0000000e+0 0.27133310
vt 0.0000000e+0 0.71835146
vt 3.2437185e-3 0.44985958
vt 5.8332373e-3 0.15430474
vt 6.4593980e-3 0.31474879
vt 7.4198356e-3 0.67058652
vt 7.7552664e-3 2.2896325e-2
vt 8.2109607e-3 0.40661654
vt 8.7457748e-3 0.76587324
vt 9.0579926e-3 0.36082540
vt 1.1025860e-2 4.6985939e-2
vt 1.5152845e-2 9.6227076e-2
vt 2.9812919e-2 0.63028306
vt 3.2233220e-2 0.80551547
vt 5.2441484e-2 0.18858519
vt 5.6349912e-2 0.71745023
vt 5.9575444e-2 0.69544436
vt 5.9901115e-2 0.14751166
vt 6.0169957e-2 0.73936351
vt 6.1418745e-2 1.9481442e-2
vt 6.1884618e-2 0.60396011
vt 6.3691789e-2 0.10441794
vt 6.4506706e-2 6.1115605e-2
vt 6.4972864e-2 0.83091378
vt 6.5288504e-2 0.24861863
vt 6.8739906e-2 0.47060388
vt 6.9074338e-2 0.67703604
vt 7.0154342e-2 0.75750287
vt 7.0736811e-2 0.30344273
vt 7.2525430e-2 0.41598256
vt 7.2986830e-2 0.35976645
vt 8.3608187e-2 0.66450106
vt 8.5016524e-2 0.76964026
vt 9.9615168e-2 0.59391599
vt 0.10049760 0.65998860
vt 0.10125642 0.71680647
vt 0.10201628 0.77370132
vt 0.10290053 0.83991049
vt 0.11750149 0.66404840
vt 0.11890151 0.76918771
vt 0.13236492 0.67619076
vt 0.13343425 0.75665774
vt 0.13681291 0.23972735
vt 0.13760050 0.60294889
vt 0.13789958 0.29823327
vt 0.13893384 0.35893096
vt 0.13956173 0.41956720
vt 0.13987383 0.47790307
vt 0.14057440 0.82990409
vt 0.14235204 0.69433884
vt 0.14293064 0.73825821
vt 0.14616411 0.71625072
vt 0.17036374 0.62840594
vt 0.17262408 0.80364049
vt 0.19295348 0.22013694
vt 0.19382519 0.66809699
vt 0.19504446 0.76338514
vt 0.19822314 0.16645677
vt 0.20207913 0.11025335
vt 0.20251799 0.71564675
vt 0.20251799 0.78536951
vt 0.20428659 5.3949491e-2
vt 0.20472099 0.0000000e+0
vt 0.21881391 0.68142170
vt 0.23176936 0.73479914
vt 0.23374389 0.63054337
vt 0.23378993 0.80986902
vt 0.24446018 0.75493846
vt 0.24677635 0.61097090
vt 0.26138443 0.76819750
vt 0.26384021 0.59831172
vt 0.28064698 0.77239132
vt 0.28146477 0.68431748
vt 0.28299400 0.59391599
vt 0.29985003 0.76787263
vt 0.30213925 0.59826456
vt 0.31695444 0.75511422
vt 0.31884064 0.61164828
vt 0.32625108 0.80986902
vt 0.33003635 0.73541870
vt 0.33121501 0.63183192
vt 0.34778965 0.67919627
vt 0.35785591 0.78629456
vt 0.39159751 0.35938822
vt 0.39182744 0.30290900
vt 0.39299117 0.41578420
vt 0.39361049 0.24881563
vt 0.39579917 0.46968504
vt 0.44869745 0.23972735
vt 0.45163744 0.18125263
vt 0.45480541 0.12038847
vt 0.45825343 5.9547925e-2
vt 0.46152192 1.0951991e-3
vt 0.51943347 0.18056451
vt 0.52071562 0.23590231
vt 0.52129536 0.12374300
vt 0.52555634 6.7048097e-2
vt 0.53114740 0.35998522
vt 0.53240555 0.31627966
vt 0.53272772 1.2163714e-2
vt 0.53291293 0.40352585
vt 0.53735986 0.27425687
vt 0.53834774 0.44526798
vt 0.58469383 0.35807574
vt 0.58509538 0.17383974
vt 0.58622644 0.12705013
vt 0.58739616 0.41311142
vt 0.58759664 0.30455539
vt 0.58808982 0.21796558
vt 0.59012729 8.0359656e-2
vt 0.59202058 0.43740800
vt 0.59203787 0.28003868
vt 0.59776477 0.45208049
vt 0.59776477 3.6781461e-2
vt 0.60419625 0.19573023
vt 0.60506412 0.52585776
vt 0.62081631 0.59391599
vt 0.62375488 4.8366231e-2
vt 0.65064468 0.45171527
vt 0.65286623 0.0000000e+0
vt 0.65330502 0.19981947
vt 0.65442995 0.51732727
vt 0.66014160 0.58460224
vt 0.66255922 5.5706962e-2
vt 0.67544775 5.5461935e-3
vt 0.69797895 6.9069760e-3
vt 0.69797895 5.8087251e-2
vt 0.69797895 0.20116671
vt 0.69797895 0.45146104
vt 0.69797895 0.51481402
vt 0.69797895 0.58148318
vt 0.72051016 5.5461935e-3
vt 0.73339868 5.5706962e-2
vt 0.73581630 0.58460224
vt 0.74152795 0.51732727
vt 0.74265288 0.19981947
vt 0.74309167 1.1102230e-16
vt 0.74531322 0.45171527
vt 0.77220302 4.8366231e-2
vt 0.77514159 0.59391599
vt 0.79089378 0.52585776
vt 0.79176166 0.19573023
vt 0.79819313 0.44460310
vt 0.79819313 0.45208049
vt 0.80481516 0.51901503
vt 0.80560437 0.18832962
vt 0.82026302 0.58888149
vt 0.82471605 4.3813725e-2
vt 0.85135683 0.44367079
vt 0.85456403 0.19155205
vt 0.85492674 0.51037264
vt 0.86034441 0.57951447
vt 0.86323753 4.8914651e-2
vt 0.87879061 0.0000000e+0
vt 0.89909656 0.57670025
vt 0.89909656 0.44324111
vt 0.89909656 0.50781859
vt 0.89909656 5.1412339e-2
vt 0.89909656 2.3695112e-3
vt 0.89909656 0.19263110
vt 0.91940251 2.2204460e-15
vt 0.93495559 4.8914651e-2
vt 0.93784871 0.57951447
vt 0.94326638 0.51037264
vt 0.94362910 0.19155205
vt 0.94683629 0.44367079
vt 0.97347708 4.3813725e-2
vt 0.97793011 0.58888149
vt 0.99258875 0.18832962
vt 0.99337797 0.51901503
vt 1.00000000 0.44460310
vn 0.49310373 1.5770467e-2 -0.86982757
vn 0.45933457 0.16527068 -0.87275275
vn 0.35910370 0.29821661 -0.88437061
vn 0.19872551 0.39344909 -0.89761127
vn -7.1393389e-18 0.42862667 -0.90348170
vn -0.19872551 0.39344909 -0.89761127
vn -0.35910370 0.29821661 -0.88437061
vn -0.45933457 0.16527068 -0.87275275
vn -0.49310373 1.5770467e-2 -0.86982757
vn -0.45976924 -0.13367412 -0.87791997
vn -0.35975967 -0.26649656 -0.89417703
vn -0.19922139 -0.36162377 -0.91079036
vn -7.8552715e-17 -0.39676393 -0.91792069
vn 0.19922139 -0.36162377 -0.91079036
vn 0.35975967 -0.26649656 -0.89417703
vn 0.45976924 -0.13367412 -0.87791997
vn 0.80964649 1.0623037e-2 -0.58682171
vn 0.76169747 0.25978434 -0.59357313
vn 0.61114115 0.49417326 -0.61830356
vn 0.34824182 0.67718563 -0.64818768
vn -1.4390870e-17 0.74937408 -0.66214687
vn -0.34824182 0.67718563 -0.64818768
vn -0.61114115 0.49417326 -0.61830356
vn -0.76169747 0.25978434 -0.59357313
vn -0.80964649 1.0623037e-2 -0.58682171
vn -0.76241652 -0.23839075 -0.60157369
vn -0.61230588 -0.47245348 -0.63393155
vn -0.34919446 -0.65520810 -0.66989967
vn -9.3573498e-17 -0.72731947 -0.68629905
vn 0.34919446 -0.65520810 -0.66989967
vn 0.61230588 -0.47245348 -0.63393155
vn 0.76241652 -0.23839075 -0.60157369
vn 0.95815700 5.1751987e-3 -0.28619640
vn 0.90794305 0.30320260 -0.28932265
vn 0.74289523 0.59538288 -0.30598349
vn 0.43350647 0.83927611 -0.32815811
vn -2.8989784e-17 0.94073377 -0.33914594
vn -0.43350647 0.83927611 -0.32815811
vn -0.74289523 0.59538288 -0.30598349
vn -0.90794305 0.30320260 -0.28932265
vn -0.95815700 5.1751987e-3 -0.28619640
vn -0.90844523 -0.29274650 -0.29837351
vn -0.74375475 -0.58470248 -0.32396278
vn -0.43425673 -0.82845620 -0.35366852
vn -1.5948297e-16 -0.92989866 -0.36781582
vn 0.43425673 -0.82845620 -0.35366852
vn 0.74375475 -0.58470248 -0.32396278
vn 0.90844523 -0.29274650 -0.29837351
vn 0.99868879 9.2987544e-4 -5.1184306e-2
vn 0.94856382 0.31264619 -4.9789950e-2
vn 0.78111580 0.62228366 -5.1197072e-2
vn 0.45948980 0.88653056 -5.4154292e-2
vn -3.5990548e-17 0.99844247 -5.5790986e-2
vn -0.45948980 0.88653056 -5.4154292e-2
vn -0.78111580 0.62228366 -5.1197072e-2
vn -0.94856382 0.31264619 -4.9789950e-2
vn -0.99868879 9.2987544e-4 -5.1184306e-2
vn -0.94883748 -0.31081993 -5.5663344e-2
vn -0.78160257 -0.62059580 -6.2914830e-2
vn -0.45993814 -0.88511792 -7.0874420e-2
vn -2.0900341e-16 -0.99721092 -7.4634942e-2
vn 0.45993814 -0.88511792 -7.0874420e-2
vn 0.78160257 -0.62059580 -6.2914830e-2
vn 0.94883748 -0.31081993 -5.5663344e-2
vn 0.99336066 -2.0551742e-3 0.11502333
vn 0.94378051 0.30798484 0.12009865
vn 0.77699908 0.61563918 0.13138050
vn 0.45683327 0.87766621 0.14493235
vn -1.4381524e-17 0.98845309 0.15152717
vn -0.45683327 0.87766621 0.14493235
vn -0.77699908 0.61563918 0.13138050
vn -0.94378051 0.30798484 0.12009865
vn -0.99336066 -2.0551742e-3 0.11502333
vn -0.94290022 -0.31191669 0.11682103
vn -0.77546179 -0.61893708 0.12480346
vn -0.45545939 -0.87988784 0.13547743
vn -1.8686753e-16 -0.99003348 0.14083218
vn 0.45545939 -0.87988784 0.13547743
vn 0.77546179 -0.61893708 0.12480346
vn 0.94290022 -0.31191669 0.11682103
vn 0.90210812 -1.1893650e-2 0.43134613
vn 0.85093262 0.28832070 0.43907272
vn 0.70657293 0.55595288 0.43780257
vn 0.41713957 0.79748620 0.43590176
vn 0.0000000e+0 0.89899348 0.43796202
vn -0.41713957 0.79748620 0.43590176
vn -0.70657293 0.55595288 0.43780257
vn -0.85084152 0.28774257 0.43962816
vn -0.89986682 -7.4273805e-3 0.43610153
vn -0.85344222 -0.30358797 0.42363984
vn -0.70900995 -0.57346221 0.41042170
vn -0.41877200 -0.81601467 0.39843452
vn -1.3719068e-16 -0.91816386 0.39620086
vn 0.41877200 -0.81601467 0.39843452
vn 0.70900995 -0.57346221 0.41042170
vn 0.85419628 -0.30814935 0.41879911
vn 0.66475486 -1.9957055e-2 0.74679495
vn 0.62535225 0.22959621 0.74580168
vn 0.51459867 0.39331742 0.76189869
vn 0.29736657 0.55517828 0.77675620
vn 0.0000000e+0 0.62079544 0.78397259
vn -0.29736657 0.55517828 0.77675620
vn -0.51459867 0.39331742 0.76189869
vn -0.62263064 0.23212806 0.74729355
vn -0.66064813 -1.0228917e-2 0.75062602
vn -0.62399172 -0.25618572 0.73824333
vn -0.51670154 -0.42245960 0.74467940
vn -0.29982921 -0.58799176 0.75124439
vn -1.6095024e-15 -0.65576467 0.75496536
vn 0.29982921 -0.58799176 0.75124439
vn 0.51670154 -0.42245960 0.74467940
vn 0.62462403 -0.26337292 0.73517312
vn -1.7555051e-16 1.8067831e-2 -0.99983676
vn 2.0457620e-4 -1.1777357e-2 0.99993062
g sphere7_sphere7_auv
usemtl sphere7_auv
s 1
f 1/17/1 17/3/17 32/7/32 16/18/16
f 1/17/1 113/37/113 2/20/2
f 2/20/2 18/10/18 17/3/17 1/17/1
f 2/20/2 113/37/113 3/29/3
f 3/29/3 19/15/19 18/10/18 2/20/2
f 3/29/3 113/37/113 4/34/4
f 4/34/4 20/25/20 19/15/19 3/29/3
f 4/34/4 113/37/113 5/38/5
f 5/38/5 21/39/21 20/25/20 4/34/4
f 5/38/5 113/37/113 6/41/6
f 6/41/6 22/50/22 21/39/21 5/38/5
f 6/41/6 113/37/113 7/43/7
f 7/43/7 23/55/23 22/50/22 6/41/6
f 7/43/7 113/37/113 8/52/8
f 8/52/8 24/58/24 23/55/23 7/43/7
f 8/52/8 113/37/113 9/53/9
f 9/53/9 25/61/25 24/58/24 8/52/8
f 9/53/9 113/37/113 10/51/10
f 10/51/10 26/57/26 25/61/25 9/53/9
f 10/51/10 113/37/113 11/42/11
f 11/42/11 27/54/27 26/57/26 10/51/10
f 11/42/11 113/37/113 12/40/12
f 12/40/12 28/45/28 27/54/27 11/42/11
f 12/40/12 113/37/113 13/36/13
f 13/36/13 29/35/29 28/45/28 12/40/12
f 13/36/13 113/37/113 14/33/14
f 14/33/14 30/22/30 29/35/29 13/36/13
f 14/33/14 113/37/113 15/28/15
f 15/28/15 31/14/31 30/22/30 14/33/14
f 15/28/15 113/37/113 16/18/16
f 16/18/16 32/7/32 31/14/31 15/28/15
f 16/18/16 113/37/113 1/17/1
f 17/107/17 33/97/33 48/98/48 32/111/32
f 18/106/18 34/95/34 33/97/33 17/107/17
f 19/110/19 35/96/35 34/95/34 18/106/18
f 20/164/20 36/165/36 35/171/35 19/169/19
f 21/156/21 37/158/37 36/165/36 20/164/20
f 22/153/22 38/152/38 37/158/37 21/156/21
f 23/148/23 39/146/39 38/152/38 22/153/22
f 24/9/24 40/31/40 39/27/39 23/4/23
f 25/11/25 41/32/41 40/31/40 24/9/24
f 26/6/26 42/30/42 41/32/41 25/11/25
f 27/2/27 43/26/43 42/30/42 26/6/26
f 28/135/28 44/136/44 43/142/43 27/141/27
f 29/132/29 45/131/45 44/136/44 28/135/28
f 30/124/30 46/123/46 45/131/45 29/132/29
f 31/118/31 47/117/47 46/123/46 30/124/30
f 32/111/32 48/98/48 47/101/47 31/115/31
f 33/97/33 49/92/49 64/93/64 48/98/48
f 34/95/34 50/91/50 49/92/49 33/97/33
f 35/96/35 51/90/51 50/91/50 34/95/34
f 36/165/36 52/167/52 51/172/51 35/171/35
f 37/158/37 53/157/53 52/167/52 36/165/36
f 38/152/38 54/150/54 53/157/53 37/158/37
f 39/146/39 55/144/55 54/150/54 38/152/38
f 40/31/40 56/48/56 55/49/55 39/27/39
f 41/32/41 57/47/57 56/48/56 40/31/40
f 42/30/42 58/46/58 57/47/57 41/32/41
f 43/26/43 59/44/59 58/46/58 42/30/42
f 44/136/44 60/139/60 59/145/59 43/142/43
f 45/131/45 61/130/61 60/139/60 44/136/44
f 46/123/46 62/120/62 61/130/61 45/131/45
f 47/117/47 63/114/63 62/120/62 46/123/46
f 48/98/48 64/93/64 63/94/63 47/101/47
f 49/92/49 65/60/65 80/63/80 64/93/64
f 50/91/50 66/59/66 65/60/65 49/92/49
f 51/90/51 67/56/67 66/59/66 50/91/50
f 52/167/52 68/166/68 67/170/67 51/172/51
f 53/157/53 69/161/69 68/166/68 52/167/52
f 54/150/54 70/151/70 69/161/69 53/157/53
f 55/144/55 71/147/71 70/151/70 54/150/54
f 56/48/56 72/87/72 71/89/71 55/49/55
f 57/47/57 73/85/73 72/87/72 56/48/56
f 58/46/58 74/86/74 73/85/73 57/47/57
f 59/44/59 75/88/75 74/86/74 58/46/58
f 60/139/60 76/137/76 75/143/75 59/145/59
f 61/130/61 77/129/77 76/137/76 60/139/60
f 62/120/62 78/122/78 77/129/77 61/130/61
f 63/114/63 79/116/79 78/122/78 62/120/62
f 64/93/64 80/63/80 79/64/79 63/94/63
f 65/60/65 81/23/81 96/24/96 80/63/80
f 66/59/66 82/19/82 81/23/81 65/60/65
f 67/56/67 83/16/83 82/19/82 66/59/66
f 68/166/68 84/163/84 83/168/83 67/170/67
f 69/161/69 85/159/85 84/163/84 68/166/68
f 70/151/70 86/154/86 85/159/85 69/161/69
f 71/147/71 87/149/87 86/154/86 70/151/70
f 72/87/72 88/102/88 87/104/87 71/89/71
f 73/85/73 89/99/89 88/102/88 72/87/72
f 74/86/74 90/100/90 89/99/89 73/85/73
f 75/88/75 91/103/91 90/100/90 74/86/74
f 76/137/76 92/134/92 91/140/91 75/143/75
f 77/129/77 93/128/93 92/134/92 76/137/76
f 78/122/78 94/125/94 93/128/93 77/129/77
f 79/116/79 95/119/95 94/125/94 78/122/78
f 80/63/80 96/24/96 95/21/95 79/64/79
f 81/23/81 97/13/97 112/12/112 96/24/96
f 82/19/82 98/5/98 97/13/97 81/23/81
f 83/16/83 99/1/99 98/5/98 82/19/82
f 84/80/84 100/76/100 99/78/99 83/84/83
f 85/159/85 101/160/101 100/162/100 84/163/84
f 86/154/86 102/155/102 101/160/101 85/159/85
f 87/62/87 103/69/103 102/71/102 86/68/86
f 88/102/88 104/108/104 103/112/103 87/104/87
f 89/99/89 105/105/105 104/108/104 88/102/88
f 90/100/90 106/109/106 105/105/105 89/99/89
f 91/103/91 107/113/107 106/109/106 90/100/90
f 92/134/92 108/133/108 107/138/107 91/140/91
f 93/128/93 109/127/109 108/133/108 92/134/92
f 94/125/94 110/126/110 109/127/109 93/128/93
f 95/119/95 111/121/111 110/126/110 94/125/94
f 96/24/96 112/12/112 111/8/111 95/21/95
f 97/83/97 114/74/114 112/82/112
f 98/81/98 114/74/114 97/83/97
f 99/78/99 114/74/114 98/81/98
f 100/76/100 114/74/114 99/78/99
f 101/73/101 114/74/114 100/76/100
f 102/71/102 114/74/114 101/73/101
f 103/69/103 114/74/114 102/71/102
f 104/66/104 114/74/114 103/69/103
f 105/65/105 114/74/114 104/66/104
f 106/67/106 114/74/114 105/65/105
f 107/70/107 114/74/114 106/67/106
f 108/72/108 114/74/114 107/70/107
f 109/75/109 114/74/114 108/72/108
f 110/77/110 114/74/114 109/75/109
f 111/79/111 114/74/114 110/77/110
f 112/82/112 114/74/114 111/79/111
